<mxfile host="app.diagrams.net" modified="2022-08-14T17:50:23.357Z" agent="5.0 (Windows NT 10.0; Win64; x64) AppleWebKit/537.36 (KHTML, like Gecko) Chrome/104.0.0.0 Safari/537.36" etag="XXC_bjSKFRhFr9w0cK0q" version="19.0.1" type="github">
  <diagram id="C5RBs43oDa-KdzZeNtuy" name="Page-1">
    <mxGraphModel dx="361" dy="650" grid="1" gridSize="10" guides="1" tooltips="1" connect="1" arrows="1" fold="1" page="1" pageScale="1" pageWidth="827" pageHeight="1169" math="0" shadow="0">
      <root>
        <mxCell id="WIyWlLk6GJQsqaUBKTNV-0" />
        <mxCell id="WIyWlLk6GJQsqaUBKTNV-1" parent="WIyWlLk6GJQsqaUBKTNV-0" />
        <mxCell id="gFzHMHPqhWO9wlWN_h8j-0" value="&lt;span style=&quot;font-size: 24px;&quot;&gt;StartUI&lt;/span&gt;" style="ellipse;whiteSpace=wrap;html=1;" vertex="1" parent="WIyWlLk6GJQsqaUBKTNV-1">
          <mxGeometry x="10" y="140" width="120" height="80" as="geometry" />
        </mxCell>
        <mxCell id="gFzHMHPqhWO9wlWN_h8j-1" value="&lt;font style=&quot;font-size: 24px;&quot;&gt;Scanner&lt;/font&gt;" style="ellipse;whiteSpace=wrap;html=1;" vertex="1" parent="WIyWlLk6GJQsqaUBKTNV-1">
          <mxGeometry x="185" y="270" width="120" height="80" as="geometry" />
        </mxCell>
        <mxCell id="gFzHMHPqhWO9wlWN_h8j-3" value="Item" style="ellipse;whiteSpace=wrap;html=1;fontSize=24;" vertex="1" parent="WIyWlLk6GJQsqaUBKTNV-1">
          <mxGeometry x="360" y="140" width="120" height="80" as="geometry" />
        </mxCell>
        <mxCell id="gFzHMHPqhWO9wlWN_h8j-4" value="Tracker" style="ellipse;whiteSpace=wrap;html=1;fontSize=24;" vertex="1" parent="WIyWlLk6GJQsqaUBKTNV-1">
          <mxGeometry x="180" y="140" width="130" height="80" as="geometry" />
        </mxCell>
        <mxCell id="gFzHMHPqhWO9wlWN_h8j-6" value="" style="endArrow=classic;html=1;rounded=0;fontSize=24;exitX=1;exitY=0.5;exitDx=0;exitDy=0;entryX=0;entryY=0.5;entryDx=0;entryDy=0;" edge="1" parent="WIyWlLk6GJQsqaUBKTNV-1" source="gFzHMHPqhWO9wlWN_h8j-4" target="gFzHMHPqhWO9wlWN_h8j-3">
          <mxGeometry width="50" height="50" relative="1" as="geometry">
            <mxPoint x="300" y="600" as="sourcePoint" />
            <mxPoint x="230" y="240" as="targetPoint" />
          </mxGeometry>
        </mxCell>
        <mxCell id="gFzHMHPqhWO9wlWN_h8j-7" value="" style="endArrow=classic;html=1;rounded=0;fontSize=24;exitX=1;exitY=0.5;exitDx=0;exitDy=0;" edge="1" parent="WIyWlLk6GJQsqaUBKTNV-1" source="gFzHMHPqhWO9wlWN_h8j-0" target="gFzHMHPqhWO9wlWN_h8j-4">
          <mxGeometry width="50" height="50" relative="1" as="geometry">
            <mxPoint x="139.9999999999999" y="110" as="sourcePoint" />
            <mxPoint x="260" y="90" as="targetPoint" />
          </mxGeometry>
        </mxCell>
        <mxCell id="gFzHMHPqhWO9wlWN_h8j-8" value="" style="endArrow=classic;html=1;rounded=0;fontSize=24;exitX=0.5;exitY=1;exitDx=0;exitDy=0;entryX=0;entryY=0.5;entryDx=0;entryDy=0;" edge="1" parent="WIyWlLk6GJQsqaUBKTNV-1" source="gFzHMHPqhWO9wlWN_h8j-0" target="gFzHMHPqhWO9wlWN_h8j-1">
          <mxGeometry width="50" height="50" relative="1" as="geometry">
            <mxPoint x="189.9999999999999" y="290" as="sourcePoint" />
            <mxPoint x="310" y="270" as="targetPoint" />
          </mxGeometry>
        </mxCell>
        <mxCell id="gFzHMHPqhWO9wlWN_h8j-9" value="" style="endArrow=classic;html=1;rounded=0;fontSize=24;exitX=0.5;exitY=0;exitDx=0;exitDy=0;" edge="1" parent="WIyWlLk6GJQsqaUBKTNV-1" source="gFzHMHPqhWO9wlWN_h8j-0">
          <mxGeometry width="50" height="50" relative="1" as="geometry">
            <mxPoint x="210" y="370" as="sourcePoint" />
            <mxPoint x="420" y="140" as="targetPoint" />
            <Array as="points">
              <mxPoint x="240" y="60" />
            </Array>
          </mxGeometry>
        </mxCell>
      </root>
    </mxGraphModel>
  </diagram>
</mxfile>
